<svg width="77" height="77" viewBox="0 0 77 77" fill="none" xmlns="http://www.w3.org/2000/svg">
<path d="M61.1828 15.8171L56.659 20.3408C61.279 24.9929 64.1665 31.4096 64.1665 38.5C64.1665 52.6808 52.6807 64.1667 38.4998 64.1667C24.319 64.1667 12.8332 52.6808 12.8332 38.5C12.8332 25.41 22.6186 14.63 35.2915 13.0579V19.5387C26.1798 21.0787 19.2498 28.9712 19.2498 38.5C19.2498 49.1196 27.8803 57.75 38.4998 57.75C49.1194 57.75 57.7498 49.1196 57.7498 38.5C57.7498 33.1742 55.6003 28.3617 52.1032 24.8967L47.5794 29.4204C49.8894 31.7625 51.3332 34.9708 51.3332 38.5C51.3332 45.5904 45.5903 51.3333 38.4998 51.3333C31.4094 51.3333 25.6665 45.5904 25.6665 38.5C25.6665 32.5325 29.7732 27.5596 35.2915 26.1158V32.9817C33.3665 34.1046 32.0832 36.1258 32.0832 38.5C32.0832 42.0292 34.9707 44.9167 38.4998 44.9167C42.029 44.9167 44.9165 42.0292 44.9165 38.5C44.9165 36.1258 43.6332 34.0725 41.7082 32.9817V6.41666H38.4998C20.7898 6.41666 6.4165 20.79 6.4165 38.5C6.4165 56.21 20.7898 70.5833 38.4998 70.5833C56.2098 70.5833 70.5832 56.21 70.5832 38.5C70.5832 29.645 66.9898 21.6242 61.1828 15.8171Z" fill="#B61827"/>
</svg>
