<svg width="77" height="77" viewBox="0 0 77 77" fill="none" xmlns="http://www.w3.org/2000/svg">
<path d="M38.5002 35.2917C42.7672 35.2917 51.3335 37.4413 51.3335 41.7083V42.2217C48.2214 45.815 43.6335 48.125 38.5002 48.125C33.3668 48.125 28.7789 45.815 25.6668 42.2217V41.7083C25.6668 37.4413 34.2331 35.2917 38.5002 35.2917ZM38.5002 32.0833C34.971 32.0833 32.0835 29.1958 32.0835 25.6667C32.0835 22.1375 34.971 19.25 38.5002 19.25C42.0293 19.25 44.9168 22.1375 44.9168 25.6667C44.9168 29.1958 42.0293 32.0833 38.5002 32.0833ZM57.7502 32.725C57.7502 21.0787 49.2481 12.8333 38.5002 12.8333C27.7522 12.8333 19.2502 21.0787 19.2502 32.725C19.2502 40.2325 25.5064 50.1783 38.5002 62.0492C51.4939 50.1783 57.7502 40.2325 57.7502 32.725ZM38.5002 6.41667C51.9752 6.41667 64.1668 16.7475 64.1668 32.725C64.1668 43.3767 55.6006 55.9854 38.5002 70.5833C21.3997 55.9854 12.8335 43.3767 12.8335 32.725C12.8335 16.7475 25.0252 6.41667 38.5002 6.41667Z" fill="#B61827"/>
</svg>
