<svg width="128" height="128" viewBox="0 0 128 128" fill="none" xmlns="http://www.w3.org/2000/svg">
<path d="M95.9999 85.3333V58.6667C95.9999 42.2933 87.2533 28.5867 71.9999 24.96V21.3333C71.9999 16.9067 68.4266 13.3333 63.9999 13.3333C59.5732 13.3333 55.9999 16.9067 55.9999 21.3333V24.96C40.6933 28.5867 31.9999 42.24 31.9999 58.6667V85.3333L21.3333 96V101.333H106.667V96L95.9999 85.3333ZM69.3332 85.3333H58.6666V74.6667H69.3332V85.3333ZM69.3332 64H58.6666V42.6667H69.3332V64ZM63.9999 117.333C69.8666 117.333 74.6666 112.533 74.6666 106.667H53.3333C53.3333 112.533 58.0799 117.333 63.9999 117.333Z" fill="#B61827"/>
</svg>
