<svg width="43" height="43" viewBox="0 0 43 43" fill="none" xmlns="http://www.w3.org/2000/svg">
<path d="M32.2501 14.3333H30.4584V10.75C30.4584 5.805 26.4451 1.79167 21.5001 1.79167C16.5551 1.79167 12.5417 5.805 12.5417 10.75V14.3333H10.7501C8.77925 14.3333 7.16675 15.9458 7.16675 17.9167V35.8333C7.16675 37.8042 8.77925 39.4167 10.7501 39.4167H32.2501C34.2209 39.4167 35.8334 37.8042 35.8334 35.8333V17.9167C35.8334 15.9458 34.2209 14.3333 32.2501 14.3333ZM21.5001 30.4583C19.5292 30.4583 17.9167 28.8458 17.9167 26.875C17.9167 24.9042 19.5292 23.2917 21.5001 23.2917C23.4709 23.2917 25.0834 24.9042 25.0834 26.875C25.0834 28.8458 23.4709 30.4583 21.5001 30.4583ZM27.0542 14.3333H15.9459V10.75C15.9459 7.68625 18.4363 5.19583 21.5001 5.19583C24.5638 5.19583 27.0542 7.68625 27.0542 10.75V14.3333Z" fill="#B61827"/>
</svg>
