<svg width="127" height="97" viewBox="0 0 127 97" fill="none" xmlns="http://www.w3.org/2000/svg">
<path d="M94 53C87.9225 53 83 57.9225 83 64C83 70.0775 87.9225 75 94 75C100.077 75 105 70.0775 105 64C105 57.9225 100.077 53 94 53ZM118.585 61.25C117.32 49.7825 108.217 40.68 96.75 39.415V33.75H91.25V39.415C79.7825 40.68 70.68 49.7825 69.415 61.25H63.75V66.75H69.415C70.68 78.2175 79.7825 87.32 91.25 88.585V94.25H96.75V88.585C108.217 87.32 117.32 78.2175 118.585 66.75H124.25V61.25H118.585ZM94 83.25C83.3575 83.25 74.75 74.6425 74.75 64C74.75 53.3575 83.3575 44.75 94 44.75C104.642 44.75 113.25 53.3575 113.25 64C113.25 74.6425 104.642 83.25 94 83.25Z" fill="#B61827"/>
<g clip-path="url(#clip0)">
<g filter="url(#filter0_d)">
<mask id="path-4-inside-1" fill="white">
<path d="M54.1406 23.2031C53.9127 23.2031 53.6941 23.2937 53.533 23.4548C53.3718 23.616 53.2812 23.8346 53.2812 24.0625V26.6406H49.3023C49.0249 25.7277 48.5885 24.871 48.0133 24.1098C47.5906 23.5502 47.2546 22.9303 47.0164 22.2707C46.8843 21.552 46.8626 20.8174 46.952 20.0922C47.0293 18.8762 47.1109 17.6215 46.4836 16.5387C45.8563 15.4559 44.7133 14.8844 43.6133 14.343C43.2094 14.141 42.8227 13.9477 42.4789 13.7371L46.3461 9.86992L48.168 11.6918C48.2479 11.7722 48.343 11.836 48.4477 11.8795C48.5524 11.923 48.6647 11.9454 48.7781 11.9453C48.9485 11.9454 49.115 11.895 49.2566 11.8003C49.3981 11.7056 49.5084 11.571 49.5733 11.4135C49.6382 11.256 49.6549 11.0828 49.6212 10.9159C49.5875 10.7489 49.5049 10.5957 49.384 10.4758L46.9562 8.04805L44.5285 5.62031C44.3673 5.45906 44.1486 5.36847 43.9205 5.36847C43.6925 5.36847 43.4738 5.45906 43.3125 5.62031C43.1512 5.78157 43.0607 6.00027 43.0607 6.22832C43.0607 6.45637 43.1512 6.67507 43.3125 6.83633L45.1172 8.6625L41.25 12.5297C41.0395 12.1859 40.8461 11.7992 40.6484 11.3996C40.1027 10.2953 39.5441 9.15664 38.4484 8.525C37.3527 7.89336 36.1109 7.9793 34.8949 8.05664C34.1697 8.14587 33.4351 8.12413 32.7164 7.99219C32.0569 7.75401 31.4369 7.41796 30.8773 6.99531C30.1161 6.42006 29.2594 5.98368 28.3465 5.70625V1.71875H30.9246C31.1525 1.71875 31.3711 1.62821 31.5323 1.46704C31.6934 1.30588 31.784 1.0873 31.784 0.859375C31.784 0.631455 31.6934 0.412869 31.5323 0.251705C31.3711 0.090541 31.1525 0 30.9246 0L24.0625 0C23.8346 0 23.616 0.090541 23.4548 0.251705C23.2937 0.412869 23.2031 0.631455 23.2031 0.859375C23.2031 1.0873 23.2937 1.30588 23.4548 1.46704C23.616 1.62821 23.8346 1.71875 24.0625 1.71875H26.6406V5.69766C25.7277 5.97509 24.871 6.41147 24.1098 6.98672C23.5502 7.40936 22.9303 7.74542 22.2707 7.98359C21.552 8.11567 20.8174 8.13741 20.0922 8.04805C18.8762 7.9707 17.6215 7.88906 16.5387 8.51641C15.4559 9.14375 14.8844 10.3125 14.343 11.391C14.141 11.7949 13.9477 12.1816 13.7371 12.5254L9.86992 8.6582L11.6918 6.83633C11.8531 6.67507 11.9436 6.45637 11.9436 6.22832C11.9436 6.00027 11.8531 5.78157 11.6918 5.62031C11.5305 5.45906 11.3118 5.36847 11.0838 5.36847C10.8557 5.36847 10.637 5.45906 10.4758 5.62031L8.04805 8.04805L5.62461 10.4844C5.54476 10.5642 5.48143 10.659 5.43822 10.7633C5.39501 10.8677 5.37276 10.9795 5.37276 11.0924C5.37276 11.2053 5.39501 11.3171 5.43822 11.4214C5.48143 11.5258 5.54476 11.6205 5.62461 11.7004C5.70445 11.7802 5.79924 11.8436 5.90357 11.8868C6.00789 11.93 6.1197 11.9522 6.23262 11.9522C6.34553 11.9522 6.45735 11.93 6.56167 11.8868C6.66599 11.8436 6.76078 11.7802 6.84063 11.7004L8.6625 9.88281L12.5297 13.75C12.1859 13.9605 11.7992 14.1539 11.3996 14.3516C10.2953 14.8973 9.15664 15.4559 8.525 16.5516C7.89336 17.6473 7.9793 18.8891 8.05664 20.1051C8.14593 20.8303 8.1242 21.5649 7.99219 22.2836C7.75401 22.9431 7.41796 23.5631 6.99531 24.1227C6.42006 24.8839 5.98368 25.7406 5.70625 26.6535H1.71875V24.0625C1.71875 23.8346 1.62821 23.616 1.46704 23.4548C1.30588 23.2937 1.0873 23.2031 0.859375 23.2031C0.631455 23.2031 0.412869 23.2937 0.251705 23.4548C0.090541 23.616 0 23.8346 0 24.0625L0 30.9375C0 31.1654 0.090541 31.384 0.251705 31.5452C0.412869 31.7063 0.631455 31.7969 0.859375 31.7969C1.0873 31.7969 1.30588 31.7063 1.46704 31.5452C1.62821 31.384 1.71875 31.1654 1.71875 30.9375V28.3594H5.69766C5.97509 29.2723 6.41147 30.129 6.98672 30.8902C7.40936 31.4498 7.74542 32.0697 7.98359 32.7293C8.11567 33.448 8.13741 34.1826 8.04805 34.9078C7.9707 36.1238 7.88906 37.3785 8.51641 38.4613C9.14375 39.5441 10.2867 40.1156 11.3867 40.6613C11.7906 40.859 12.1773 41.0523 12.5211 41.2629L8.65391 45.1301L6.83203 43.3082C6.67078 43.1469 6.45207 43.0564 6.22402 43.0564C5.99598 43.0564 5.77727 43.1469 5.61602 43.3082C5.45476 43.4695 5.36417 43.6882 5.36417 43.9162C5.36417 44.1443 5.45476 44.363 5.61602 44.5242L8.04375 46.952L10.4715 49.3797C10.5513 49.4595 10.6461 49.5229 10.7504 49.5661C10.8548 49.6093 10.9666 49.6315 11.0795 49.6315C11.1924 49.6315 11.3042 49.6093 11.4085 49.5661C11.5129 49.5229 11.6077 49.4595 11.6875 49.3797C11.7673 49.2998 11.8307 49.2051 11.8739 49.1007C11.9171 48.9964 11.9393 48.8846 11.9393 48.7717C11.9393 48.6588 11.9171 48.5469 11.8739 48.4426C11.8307 48.3383 11.7673 48.2435 11.6875 48.1637L9.88281 46.3375L13.75 42.4703C13.9605 42.8141 14.1539 43.2008 14.3516 43.6004C14.8973 44.7047 15.4559 45.8434 16.5516 46.475C17.6473 47.1066 18.8891 47.0207 20.1051 46.9434C20.8303 46.8541 21.5649 46.8758 22.2836 47.0078C22.9431 47.246 23.5631 47.582 24.1227 48.0047C24.8839 48.5799 25.7406 49.0163 26.6535 49.2938V53.2812H24.0625C23.8346 53.2812 23.616 53.3718 23.4548 53.533C23.2937 53.6941 23.2031 53.9127 23.2031 54.1406C23.2031 54.3685 23.2937 54.5871 23.4548 54.7483C23.616 54.9095 23.8346 55 24.0625 55H30.9375C31.1654 55 31.384 54.9095 31.5452 54.7483C31.7063 54.5871 31.7969 54.3685 31.7969 54.1406C31.7969 53.9127 31.7063 53.6941 31.5452 53.533C31.384 53.3718 31.1654 53.2812 30.9375 53.2812H28.3594V49.3023C29.2723 49.0249 30.129 48.5885 30.8902 48.0133C31.4498 47.5906 32.0697 47.2546 32.7293 47.0164C33.448 46.8845 34.1826 46.8627 34.9078 46.952C36.1238 47.0293 37.3785 47.1109 38.4613 46.4836C39.5441 45.8563 40.1156 44.7133 40.6613 43.6133C40.859 43.2094 41.0523 42.8227 41.2629 42.4789L45.1301 46.3461L43.3082 48.168C43.1469 48.3292 43.0564 48.5479 43.0564 48.776C43.0564 49.004 43.1469 49.2227 43.3082 49.384C43.4695 49.5452 43.6882 49.6358 43.9162 49.6358C44.1443 49.6358 44.363 49.5452 44.5242 49.384L46.952 46.9562L49.3797 44.5285C49.5409 44.3673 49.6315 44.1486 49.6315 43.9205C49.6315 43.6925 49.5409 43.4738 49.3797 43.3125C49.2184 43.1512 48.9997 43.0607 48.7717 43.0607C48.5436 43.0607 48.3249 43.1512 48.1637 43.3125L46.3375 45.1172L42.4703 41.25C42.8141 41.0395 43.2008 40.8461 43.6004 40.6484C44.7047 40.1027 45.8434 39.5441 46.475 38.4484C47.1066 37.3527 47.0207 36.1109 46.9434 34.8949C46.8541 34.1697 46.8758 33.4351 47.0078 32.7164C47.246 32.0569 47.582 31.4369 48.0047 30.8773C48.5799 30.1161 49.0163 29.2594 49.2938 28.3465H53.2812V30.9246C53.2812 31.1525 53.3718 31.3711 53.533 31.5323C53.6941 31.6934 53.9127 31.784 54.1406 31.784C54.3685 31.784 54.5871 31.6934 54.7483 31.5323C54.9095 31.3711 55 31.1525 55 30.9246V24.0625C55 23.8346 54.9095 23.616 54.7483 23.4548C54.5871 23.2937 54.3685 23.2031 54.1406 23.2031ZM46.5824 29.9363C46.0455 30.6464 45.6302 31.4406 45.3535 32.2867C45.1631 33.1834 45.1225 34.1053 45.2332 35.0152C45.2977 36.0207 45.3578 36.9703 44.9926 37.5934C44.6273 38.2164 43.7594 38.6633 42.8441 39.1145C42.0082 39.4666 41.237 39.956 40.5625 40.5625C39.952 41.2381 39.4582 42.0106 39.1016 42.8484C38.6504 43.7594 38.2422 44.6188 37.5805 44.9969C36.9187 45.375 36.0035 45.302 35.0023 45.2375C34.0924 45.1268 33.1705 45.1674 32.2738 45.3578C31.4277 45.6345 30.6335 46.0498 29.9234 46.5867C29.0641 47.1582 28.2605 47.6996 27.4871 47.6996C26.7137 47.6996 25.9059 47.1582 25.0508 46.5867C24.3408 46.0498 23.5465 45.6345 22.7004 45.3578C22.2104 45.2338 21.7061 45.176 21.2008 45.1859C20.7711 45.1859 20.3758 45.2117 19.9719 45.2375C18.9664 45.302 18.0168 45.3621 17.3937 44.9969C16.7707 44.6316 16.3238 43.7637 15.8727 42.8484C15.5205 42.0125 15.0311 41.2413 14.4246 40.5668C13.7533 39.9559 12.9851 39.4608 12.1516 39.1016C11.2406 38.6504 10.3813 38.2422 10.0031 37.5805C9.625 36.9187 9.69805 36.0035 9.7625 35.0023C9.87323 34.0924 9.83258 33.1705 9.64219 32.2738C9.3655 31.4277 8.95022 30.6335 8.41328 29.9234C7.84609 29.0812 7.30469 28.2734 7.30469 27.5C7.30469 26.7266 7.84609 25.9188 8.41758 25.0637C8.95451 24.3536 9.3698 23.5594 9.64648 22.7133C9.83687 21.8166 9.87753 20.8947 9.7668 19.9848C9.70234 18.9793 9.64219 18.0297 10.0074 17.4066C10.3727 16.7836 11.2406 16.3367 12.1559 15.8855C12.9918 15.5334 13.763 15.044 14.4375 14.4375C15.048 13.7619 15.5418 12.9894 15.8984 12.1516C16.3281 11.2406 16.7578 10.3813 17.4195 10.0031C18.0813 9.625 18.9965 9.69805 19.9977 9.7625C20.9076 9.87323 21.8295 9.83258 22.7262 9.64219C23.5723 9.3655 24.3665 8.95022 25.0766 8.41328C25.9188 7.84609 26.7266 7.30469 27.5 7.30469C28.2734 7.30469 29.0812 7.84609 29.9363 8.41758C30.6464 8.95451 31.4406 9.3698 32.2867 9.64648C33.1834 9.83687 34.1053 9.87753 35.0152 9.7668C36.0207 9.70234 36.9703 9.64219 37.5934 10.0074C38.2164 10.3727 38.6633 11.2406 39.1145 12.1559C39.4666 12.9918 39.956 13.763 40.5625 14.4375C41.2381 15.048 42.0106 15.5418 42.8484 15.8984C43.7594 16.3281 44.6188 16.7578 44.9969 17.4195C45.375 18.0813 45.302 18.9965 45.2375 19.9977C45.1268 20.9076 45.1674 21.8295 45.3578 22.7262C45.6345 23.5723 46.0498 24.3665 46.5867 25.0766C47.1582 25.9359 47.6996 26.7395 47.6996 27.5129C47.6996 28.2863 47.1539 29.0812 46.5824 29.9363Z"/>
</mask>
<path d="M54.1406 23.2031C53.9127 23.2031 53.6941 23.2937 53.533 23.4548C53.3718 23.616 53.2812 23.8346 53.2812 24.0625V26.6406H49.3023C49.0249 25.7277 48.5885 24.871 48.0133 24.1098C47.5906 23.5502 47.2546 22.9303 47.0164 22.2707C46.8843 21.552 46.8626 20.8174 46.952 20.0922C47.0293 18.8762 47.1109 17.6215 46.4836 16.5387C45.8563 15.4559 44.7133 14.8844 43.6133 14.343C43.2094 14.141 42.8227 13.9477 42.4789 13.7371L46.3461 9.86992L48.168 11.6918C48.2479 11.7722 48.343 11.836 48.4477 11.8795C48.5524 11.923 48.6647 11.9454 48.7781 11.9453C48.9485 11.9454 49.115 11.895 49.2566 11.8003C49.3981 11.7056 49.5084 11.571 49.5733 11.4135C49.6382 11.256 49.6549 11.0828 49.6212 10.9159C49.5875 10.7489 49.5049 10.5957 49.384 10.4758L46.9562 8.04805L44.5285 5.62031C44.3673 5.45906 44.1486 5.36847 43.9205 5.36847C43.6925 5.36847 43.4738 5.45906 43.3125 5.62031C43.1512 5.78157 43.0607 6.00027 43.0607 6.22832C43.0607 6.45637 43.1512 6.67507 43.3125 6.83633L45.1172 8.6625L41.25 12.5297C41.0395 12.1859 40.8461 11.7992 40.6484 11.3996C40.1027 10.2953 39.5441 9.15664 38.4484 8.525C37.3527 7.89336 36.1109 7.9793 34.8949 8.05664C34.1697 8.14587 33.4351 8.12413 32.7164 7.99219C32.0569 7.75401 31.4369 7.41796 30.8773 6.99531C30.1161 6.42006 29.2594 5.98368 28.3465 5.70625V1.71875H30.9246C31.1525 1.71875 31.3711 1.62821 31.5323 1.46704C31.6934 1.30588 31.784 1.0873 31.784 0.859375C31.784 0.631455 31.6934 0.412869 31.5323 0.251705C31.3711 0.090541 31.1525 0 30.9246 0L24.0625 0C23.8346 0 23.616 0.090541 23.4548 0.251705C23.2937 0.412869 23.2031 0.631455 23.2031 0.859375C23.2031 1.0873 23.2937 1.30588 23.4548 1.46704C23.616 1.62821 23.8346 1.71875 24.0625 1.71875H26.6406V5.69766C25.7277 5.97509 24.871 6.41147 24.1098 6.98672C23.5502 7.40936 22.9303 7.74542 22.2707 7.98359C21.552 8.11567 20.8174 8.13741 20.0922 8.04805C18.8762 7.9707 17.6215 7.88906 16.5387 8.51641C15.4559 9.14375 14.8844 10.3125 14.343 11.391C14.141 11.7949 13.9477 12.1816 13.7371 12.5254L9.86992 8.6582L11.6918 6.83633C11.8531 6.67507 11.9436 6.45637 11.9436 6.22832C11.9436 6.00027 11.8531 5.78157 11.6918 5.62031C11.5305 5.45906 11.3118 5.36847 11.0838 5.36847C10.8557 5.36847 10.637 5.45906 10.4758 5.62031L8.04805 8.04805L5.62461 10.4844C5.54476 10.5642 5.48143 10.659 5.43822 10.7633C5.39501 10.8677 5.37276 10.9795 5.37276 11.0924C5.37276 11.2053 5.39501 11.3171 5.43822 11.4214C5.48143 11.5258 5.54476 11.6205 5.62461 11.7004C5.70445 11.7802 5.79924 11.8436 5.90357 11.8868C6.00789 11.93 6.1197 11.9522 6.23262 11.9522C6.34553 11.9522 6.45735 11.93 6.56167 11.8868C6.66599 11.8436 6.76078 11.7802 6.84063 11.7004L8.6625 9.88281L12.5297 13.75C12.1859 13.9605 11.7992 14.1539 11.3996 14.3516C10.2953 14.8973 9.15664 15.4559 8.525 16.5516C7.89336 17.6473 7.9793 18.8891 8.05664 20.1051C8.14593 20.8303 8.1242 21.5649 7.99219 22.2836C7.75401 22.9431 7.41796 23.5631 6.99531 24.1227C6.42006 24.8839 5.98368 25.7406 5.70625 26.6535H1.71875V24.0625C1.71875 23.8346 1.62821 23.616 1.46704 23.4548C1.30588 23.2937 1.0873 23.2031 0.859375 23.2031C0.631455 23.2031 0.412869 23.2937 0.251705 23.4548C0.090541 23.616 0 23.8346 0 24.0625L0 30.9375C0 31.1654 0.090541 31.384 0.251705 31.5452C0.412869 31.7063 0.631455 31.7969 0.859375 31.7969C1.0873 31.7969 1.30588 31.7063 1.46704 31.5452C1.62821 31.384 1.71875 31.1654 1.71875 30.9375V28.3594H5.69766C5.97509 29.2723 6.41147 30.129 6.98672 30.8902C7.40936 31.4498 7.74542 32.0697 7.98359 32.7293C8.11567 33.448 8.13741 34.1826 8.04805 34.9078C7.9707 36.1238 7.88906 37.3785 8.51641 38.4613C9.14375 39.5441 10.2867 40.1156 11.3867 40.6613C11.7906 40.859 12.1773 41.0523 12.5211 41.2629L8.65391 45.1301L6.83203 43.3082C6.67078 43.1469 6.45207 43.0564 6.22402 43.0564C5.99598 43.0564 5.77727 43.1469 5.61602 43.3082C5.45476 43.4695 5.36417 43.6882 5.36417 43.9162C5.36417 44.1443 5.45476 44.363 5.61602 44.5242L8.04375 46.952L10.4715 49.3797C10.5513 49.4595 10.6461 49.5229 10.7504 49.5661C10.8548 49.6093 10.9666 49.6315 11.0795 49.6315C11.1924 49.6315 11.3042 49.6093 11.4085 49.5661C11.5129 49.5229 11.6077 49.4595 11.6875 49.3797C11.7673 49.2998 11.8307 49.2051 11.8739 49.1007C11.9171 48.9964 11.9393 48.8846 11.9393 48.7717C11.9393 48.6588 11.9171 48.5469 11.8739 48.4426C11.8307 48.3383 11.7673 48.2435 11.6875 48.1637L9.88281 46.3375L13.75 42.4703C13.9605 42.8141 14.1539 43.2008 14.3516 43.6004C14.8973 44.7047 15.4559 45.8434 16.5516 46.475C17.6473 47.1066 18.8891 47.0207 20.1051 46.9434C20.8303 46.8541 21.5649 46.8758 22.2836 47.0078C22.9431 47.246 23.5631 47.582 24.1227 48.0047C24.8839 48.5799 25.7406 49.0163 26.6535 49.2938V53.2812H24.0625C23.8346 53.2812 23.616 53.3718 23.4548 53.533C23.2937 53.6941 23.2031 53.9127 23.2031 54.1406C23.2031 54.3685 23.2937 54.5871 23.4548 54.7483C23.616 54.9095 23.8346 55 24.0625 55H30.9375C31.1654 55 31.384 54.9095 31.5452 54.7483C31.7063 54.5871 31.7969 54.3685 31.7969 54.1406C31.7969 53.9127 31.7063 53.6941 31.5452 53.533C31.384 53.3718 31.1654 53.2812 30.9375 53.2812H28.3594V49.3023C29.2723 49.0249 30.129 48.5885 30.8902 48.0133C31.4498 47.5906 32.0697 47.2546 32.7293 47.0164C33.448 46.8845 34.1826 46.8627 34.9078 46.952C36.1238 47.0293 37.3785 47.1109 38.4613 46.4836C39.5441 45.8563 40.1156 44.7133 40.6613 43.6133C40.859 43.2094 41.0523 42.8227 41.2629 42.4789L45.1301 46.3461L43.3082 48.168C43.1469 48.3292 43.0564 48.5479 43.0564 48.776C43.0564 49.004 43.1469 49.2227 43.3082 49.384C43.4695 49.5452 43.6882 49.6358 43.9162 49.6358C44.1443 49.6358 44.363 49.5452 44.5242 49.384L46.952 46.9562L49.3797 44.5285C49.5409 44.3673 49.6315 44.1486 49.6315 43.9205C49.6315 43.6925 49.5409 43.4738 49.3797 43.3125C49.2184 43.1512 48.9997 43.0607 48.7717 43.0607C48.5436 43.0607 48.3249 43.1512 48.1637 43.3125L46.3375 45.1172L42.4703 41.25C42.8141 41.0395 43.2008 40.8461 43.6004 40.6484C44.7047 40.1027 45.8434 39.5441 46.475 38.4484C47.1066 37.3527 47.0207 36.1109 46.9434 34.8949C46.8541 34.1697 46.8758 33.4351 47.0078 32.7164C47.246 32.0569 47.582 31.4369 48.0047 30.8773C48.5799 30.1161 49.0163 29.2594 49.2938 28.3465H53.2812V30.9246C53.2812 31.1525 53.3718 31.3711 53.533 31.5323C53.6941 31.6934 53.9127 31.784 54.1406 31.784C54.3685 31.784 54.5871 31.6934 54.7483 31.5323C54.9095 31.3711 55 31.1525 55 30.9246V24.0625C55 23.8346 54.9095 23.616 54.7483 23.4548C54.5871 23.2937 54.3685 23.2031 54.1406 23.2031ZM46.5824 29.9363C46.0455 30.6464 45.6302 31.4406 45.3535 32.2867C45.1631 33.1834 45.1225 34.1053 45.2332 35.0152C45.2977 36.0207 45.3578 36.9703 44.9926 37.5934C44.6273 38.2164 43.7594 38.6633 42.8441 39.1145C42.0082 39.4666 41.237 39.956 40.5625 40.5625C39.952 41.2381 39.4582 42.0106 39.1016 42.8484C38.6504 43.7594 38.2422 44.6188 37.5805 44.9969C36.9187 45.375 36.0035 45.302 35.0023 45.2375C34.0924 45.1268 33.1705 45.1674 32.2738 45.3578C31.4277 45.6345 30.6335 46.0498 29.9234 46.5867C29.0641 47.1582 28.2605 47.6996 27.4871 47.6996C26.7137 47.6996 25.9059 47.1582 25.0508 46.5867C24.3408 46.0498 23.5465 45.6345 22.7004 45.3578C22.2104 45.2338 21.7061 45.176 21.2008 45.1859C20.7711 45.1859 20.3758 45.2117 19.9719 45.2375C18.9664 45.302 18.0168 45.3621 17.3937 44.9969C16.7707 44.6316 16.3238 43.7637 15.8727 42.8484C15.5205 42.0125 15.0311 41.2413 14.4246 40.5668C13.7533 39.9559 12.9851 39.4608 12.1516 39.1016C11.2406 38.6504 10.3813 38.2422 10.0031 37.5805C9.625 36.9187 9.69805 36.0035 9.7625 35.0023C9.87323 34.0924 9.83258 33.1705 9.64219 32.2738C9.3655 31.4277 8.95022 30.6335 8.41328 29.9234C7.84609 29.0812 7.30469 28.2734 7.30469 27.5C7.30469 26.7266 7.84609 25.9188 8.41758 25.0637C8.95451 24.3536 9.3698 23.5594 9.64648 22.7133C9.83687 21.8166 9.87753 20.8947 9.7668 19.9848C9.70234 18.9793 9.64219 18.0297 10.0074 17.4066C10.3727 16.7836 11.2406 16.3367 12.1559 15.8855C12.9918 15.5334 13.763 15.044 14.4375 14.4375C15.048 13.7619 15.5418 12.9894 15.8984 12.1516C16.3281 11.2406 16.7578 10.3813 17.4195 10.0031C18.0813 9.625 18.9965 9.69805 19.9977 9.7625C20.9076 9.87323 21.8295 9.83258 22.7262 9.64219C23.5723 9.3655 24.3665 8.95022 25.0766 8.41328C25.9188 7.84609 26.7266 7.30469 27.5 7.30469C28.2734 7.30469 29.0812 7.84609 29.9363 8.41758C30.6464 8.95451 31.4406 9.3698 32.2867 9.64648C33.1834 9.83687 34.1053 9.87753 35.0152 9.7668C36.0207 9.70234 36.9703 9.64219 37.5934 10.0074C38.2164 10.3727 38.6633 11.2406 39.1145 12.1559C39.4666 12.9918 39.956 13.763 40.5625 14.4375C41.2381 15.048 42.0106 15.5418 42.8484 15.8984C43.7594 16.3281 44.6188 16.7578 44.9969 17.4195C45.375 18.0813 45.302 18.9965 45.2375 19.9977C45.1268 20.9076 45.1674 21.8295 45.3578 22.7262C45.6345 23.5723 46.0498 24.3665 46.5867 25.0766C47.1582 25.9359 47.6996 26.7395 47.6996 27.5129C47.6996 28.2863 47.1539 29.0812 46.5824 29.9363Z" fill="#B61827"/>
<path d="M54.1406 23.2031C53.9127 23.2031 53.6941 23.2937 53.533 23.4548C53.3718 23.616 53.2812 23.8346 53.2812 24.0625V26.6406H49.3023C49.0249 25.7277 48.5885 24.871 48.0133 24.1098C47.5906 23.5502 47.2546 22.9303 47.0164 22.2707C46.8843 21.552 46.8626 20.8174 46.952 20.0922C47.0293 18.8762 47.1109 17.6215 46.4836 16.5387C45.8563 15.4559 44.7133 14.8844 43.6133 14.343C43.2094 14.141 42.8227 13.9477 42.4789 13.7371L46.3461 9.86992L48.168 11.6918C48.2479 11.7722 48.343 11.836 48.4477 11.8795C48.5524 11.923 48.6647 11.9454 48.7781 11.9453C48.9485 11.9454 49.115 11.895 49.2566 11.8003C49.3981 11.7056 49.5084 11.571 49.5733 11.4135C49.6382 11.256 49.6549 11.0828 49.6212 10.9159C49.5875 10.7489 49.5049 10.5957 49.384 10.4758L46.9562 8.04805L44.5285 5.62031C44.3673 5.45906 44.1486 5.36847 43.9205 5.36847C43.6925 5.36847 43.4738 5.45906 43.3125 5.62031C43.1512 5.78157 43.0607 6.00027 43.0607 6.22832C43.0607 6.45637 43.1512 6.67507 43.3125 6.83633L45.1172 8.6625L41.25 12.5297C41.0395 12.1859 40.8461 11.7992 40.6484 11.3996C40.1027 10.2953 39.5441 9.15664 38.4484 8.525C37.3527 7.89336 36.1109 7.9793 34.8949 8.05664C34.1697 8.14587 33.4351 8.12413 32.7164 7.99219C32.0569 7.75401 31.4369 7.41796 30.8773 6.99531C30.1161 6.42006 29.2594 5.98368 28.3465 5.70625V1.71875H30.9246C31.1525 1.71875 31.3711 1.62821 31.5323 1.46704C31.6934 1.30588 31.784 1.0873 31.784 0.859375C31.784 0.631455 31.6934 0.412869 31.5323 0.251705C31.3711 0.090541 31.1525 0 30.9246 0L24.0625 0C23.8346 0 23.616 0.090541 23.4548 0.251705C23.2937 0.412869 23.2031 0.631455 23.2031 0.859375C23.2031 1.0873 23.2937 1.30588 23.4548 1.46704C23.616 1.62821 23.8346 1.71875 24.0625 1.71875H26.6406V5.69766C25.7277 5.97509 24.871 6.41147 24.1098 6.98672C23.5502 7.40936 22.9303 7.74542 22.2707 7.98359C21.552 8.11567 20.8174 8.13741 20.0922 8.04805C18.8762 7.9707 17.6215 7.88906 16.5387 8.51641C15.4559 9.14375 14.8844 10.3125 14.343 11.391C14.141 11.7949 13.9477 12.1816 13.7371 12.5254L9.86992 8.6582L11.6918 6.83633C11.8531 6.67507 11.9436 6.45637 11.9436 6.22832C11.9436 6.00027 11.8531 5.78157 11.6918 5.62031C11.5305 5.45906 11.3118 5.36847 11.0838 5.36847C10.8557 5.36847 10.637 5.45906 10.4758 5.62031L8.04805 8.04805L5.62461 10.4844C5.54476 10.5642 5.48143 10.659 5.43822 10.7633C5.39501 10.8677 5.37276 10.9795 5.37276 11.0924C5.37276 11.2053 5.39501 11.3171 5.43822 11.4214C5.48143 11.5258 5.54476 11.6205 5.62461 11.7004C5.70445 11.7802 5.79924 11.8436 5.90357 11.8868C6.00789 11.93 6.1197 11.9522 6.23262 11.9522C6.34553 11.9522 6.45735 11.93 6.56167 11.8868C6.66599 11.8436 6.76078 11.7802 6.84063 11.7004L8.6625 9.88281L12.5297 13.75C12.1859 13.9605 11.7992 14.1539 11.3996 14.3516C10.2953 14.8973 9.15664 15.4559 8.525 16.5516C7.89336 17.6473 7.9793 18.8891 8.05664 20.1051C8.14593 20.8303 8.1242 21.5649 7.99219 22.2836C7.75401 22.9431 7.41796 23.5631 6.99531 24.1227C6.42006 24.8839 5.98368 25.7406 5.70625 26.6535H1.71875V24.0625C1.71875 23.8346 1.62821 23.616 1.46704 23.4548C1.30588 23.2937 1.0873 23.2031 0.859375 23.2031C0.631455 23.2031 0.412869 23.2937 0.251705 23.4548C0.090541 23.616 0 23.8346 0 24.0625L0 30.9375C0 31.1654 0.090541 31.384 0.251705 31.5452C0.412869 31.7063 0.631455 31.7969 0.859375 31.7969C1.0873 31.7969 1.30588 31.7063 1.46704 31.5452C1.62821 31.384 1.71875 31.1654 1.71875 30.9375V28.3594H5.69766C5.97509 29.2723 6.41147 30.129 6.98672 30.8902C7.40936 31.4498 7.74542 32.0697 7.98359 32.7293C8.11567 33.448 8.13741 34.1826 8.04805 34.9078C7.9707 36.1238 7.88906 37.3785 8.51641 38.4613C9.14375 39.5441 10.2867 40.1156 11.3867 40.6613C11.7906 40.859 12.1773 41.0523 12.5211 41.2629L8.65391 45.1301L6.83203 43.3082C6.67078 43.1469 6.45207 43.0564 6.22402 43.0564C5.99598 43.0564 5.77727 43.1469 5.61602 43.3082C5.45476 43.4695 5.36417 43.6882 5.36417 43.9162C5.36417 44.1443 5.45476 44.363 5.61602 44.5242L8.04375 46.952L10.4715 49.3797C10.5513 49.4595 10.6461 49.5229 10.7504 49.5661C10.8548 49.6093 10.9666 49.6315 11.0795 49.6315C11.1924 49.6315 11.3042 49.6093 11.4085 49.5661C11.5129 49.5229 11.6077 49.4595 11.6875 49.3797C11.7673 49.2998 11.8307 49.2051 11.8739 49.1007C11.9171 48.9964 11.9393 48.8846 11.9393 48.7717C11.9393 48.6588 11.9171 48.5469 11.8739 48.4426C11.8307 48.3383 11.7673 48.2435 11.6875 48.1637L9.88281 46.3375L13.75 42.4703C13.9605 42.8141 14.1539 43.2008 14.3516 43.6004C14.8973 44.7047 15.4559 45.8434 16.5516 46.475C17.6473 47.1066 18.8891 47.0207 20.1051 46.9434C20.8303 46.8541 21.5649 46.8758 22.2836 47.0078C22.9431 47.246 23.5631 47.582 24.1227 48.0047C24.8839 48.5799 25.7406 49.0163 26.6535 49.2938V53.2812H24.0625C23.8346 53.2812 23.616 53.3718 23.4548 53.533C23.2937 53.6941 23.2031 53.9127 23.2031 54.1406C23.2031 54.3685 23.2937 54.5871 23.4548 54.7483C23.616 54.9095 23.8346 55 24.0625 55H30.9375C31.1654 55 31.384 54.9095 31.5452 54.7483C31.7063 54.5871 31.7969 54.3685 31.7969 54.1406C31.7969 53.9127 31.7063 53.6941 31.5452 53.533C31.384 53.3718 31.1654 53.2812 30.9375 53.2812H28.3594V49.3023C29.2723 49.0249 30.129 48.5885 30.8902 48.0133C31.4498 47.5906 32.0697 47.2546 32.7293 47.0164C33.448 46.8845 34.1826 46.8627 34.9078 46.952C36.1238 47.0293 37.3785 47.1109 38.4613 46.4836C39.5441 45.8563 40.1156 44.7133 40.6613 43.6133C40.859 43.2094 41.0523 42.8227 41.2629 42.4789L45.1301 46.3461L43.3082 48.168C43.1469 48.3292 43.0564 48.5479 43.0564 48.776C43.0564 49.004 43.1469 49.2227 43.3082 49.384C43.4695 49.5452 43.6882 49.6358 43.9162 49.6358C44.1443 49.6358 44.363 49.5452 44.5242 49.384L46.952 46.9562L49.3797 44.5285C49.5409 44.3673 49.6315 44.1486 49.6315 43.9205C49.6315 43.6925 49.5409 43.4738 49.3797 43.3125C49.2184 43.1512 48.9997 43.0607 48.7717 43.0607C48.5436 43.0607 48.3249 43.1512 48.1637 43.3125L46.3375 45.1172L42.4703 41.25C42.8141 41.0395 43.2008 40.8461 43.6004 40.6484C44.7047 40.1027 45.8434 39.5441 46.475 38.4484C47.1066 37.3527 47.0207 36.1109 46.9434 34.8949C46.8541 34.1697 46.8758 33.4351 47.0078 32.7164C47.246 32.0569 47.582 31.4369 48.0047 30.8773C48.5799 30.1161 49.0163 29.2594 49.2938 28.3465H53.2812V30.9246C53.2812 31.1525 53.3718 31.3711 53.533 31.5323C53.6941 31.6934 53.9127 31.784 54.1406 31.784C54.3685 31.784 54.5871 31.6934 54.7483 31.5323C54.9095 31.3711 55 31.1525 55 30.9246V24.0625C55 23.8346 54.9095 23.616 54.7483 23.4548C54.5871 23.2937 54.3685 23.2031 54.1406 23.2031ZM46.5824 29.9363C46.0455 30.6464 45.6302 31.4406 45.3535 32.2867C45.1631 33.1834 45.1225 34.1053 45.2332 35.0152C45.2977 36.0207 45.3578 36.9703 44.9926 37.5934C44.6273 38.2164 43.7594 38.6633 42.8441 39.1145C42.0082 39.4666 41.237 39.956 40.5625 40.5625C39.952 41.2381 39.4582 42.0106 39.1016 42.8484C38.6504 43.7594 38.2422 44.6188 37.5805 44.9969C36.9187 45.375 36.0035 45.302 35.0023 45.2375C34.0924 45.1268 33.1705 45.1674 32.2738 45.3578C31.4277 45.6345 30.6335 46.0498 29.9234 46.5867C29.0641 47.1582 28.2605 47.6996 27.4871 47.6996C26.7137 47.6996 25.9059 47.1582 25.0508 46.5867C24.3408 46.0498 23.5465 45.6345 22.7004 45.3578C22.2104 45.2338 21.7061 45.176 21.2008 45.1859C20.7711 45.1859 20.3758 45.2117 19.9719 45.2375C18.9664 45.302 18.0168 45.3621 17.3937 44.9969C16.7707 44.6316 16.3238 43.7637 15.8727 42.8484C15.5205 42.0125 15.0311 41.2413 14.4246 40.5668C13.7533 39.9559 12.9851 39.4608 12.1516 39.1016C11.2406 38.6504 10.3813 38.2422 10.0031 37.5805C9.625 36.9187 9.69805 36.0035 9.7625 35.0023C9.87323 34.0924 9.83258 33.1705 9.64219 32.2738C9.3655 31.4277 8.95022 30.6335 8.41328 29.9234C7.84609 29.0812 7.30469 28.2734 7.30469 27.5C7.30469 26.7266 7.84609 25.9188 8.41758 25.0637C8.95451 24.3536 9.3698 23.5594 9.64648 22.7133C9.83687 21.8166 9.87753 20.8947 9.7668 19.9848C9.70234 18.9793 9.64219 18.0297 10.0074 17.4066C10.3727 16.7836 11.2406 16.3367 12.1559 15.8855C12.9918 15.5334 13.763 15.044 14.4375 14.4375C15.048 13.7619 15.5418 12.9894 15.8984 12.1516C16.3281 11.2406 16.7578 10.3813 17.4195 10.0031C18.0813 9.625 18.9965 9.69805 19.9977 9.7625C20.9076 9.87323 21.8295 9.83258 22.7262 9.64219C23.5723 9.3655 24.3665 8.95022 25.0766 8.41328C25.9188 7.84609 26.7266 7.30469 27.5 7.30469C28.2734 7.30469 29.0812 7.84609 29.9363 8.41758C30.6464 8.95451 31.4406 9.3698 32.2867 9.64648C33.1834 9.83687 34.1053 9.87753 35.0152 9.7668C36.0207 9.70234 36.9703 9.64219 37.5934 10.0074C38.2164 10.3727 38.6633 11.2406 39.1145 12.1559C39.4666 12.9918 39.956 13.763 40.5625 14.4375C41.2381 15.048 42.0106 15.5418 42.8484 15.8984C43.7594 16.3281 44.6188 16.7578 44.9969 17.4195C45.375 18.0813 45.302 18.9965 45.2375 19.9977C45.1268 20.9076 45.1674 21.8295 45.3578 22.7262C45.6345 23.5723 46.0498 24.3665 46.5867 25.0766C47.1582 25.9359 47.6996 26.7395 47.6996 27.5129C47.6996 28.2863 47.1539 29.0812 46.5824 29.9363Z" stroke="#B61827" stroke-width="2" mask="url(#path-4-inside-1)"/>
</g>
<path d="M38.9077 25.7221L38.9077 25.7221L38.9119 25.7258C39.5882 26.3249 40.1056 26.8371 40.1056 27.5172C40.1056 28.1951 39.5928 28.6881 38.9119 29.2914L38.9119 29.2913L38.9077 29.2951C38.8889 29.3122 38.869 29.3301 38.8482 29.3489C38.7235 29.4615 38.5668 29.603 38.4322 29.7381C38.3533 29.8173 38.2725 29.9036 38.205 29.9892C38.1489 30.0602 38.0562 30.1861 38.0164 30.3382L37.9977 30.4095L38.0004 30.4832C38.0166 30.9228 38.1115 31.3558 38.2807 31.7617C38.4131 32.1635 38.5335 32.5303 38.5768 32.8886C38.6191 33.2394 38.5818 33.5446 38.42 33.8232C38.2579 34.1023 38.0082 34.2902 37.6779 34.4314C37.3429 34.5746 36.9599 34.6559 36.5452 34.7399C36.1161 34.7886 35.6988 34.9121 35.3122 35.1049L35.1667 35.1774L35.0917 35.3216C34.8938 35.7021 34.7636 36.1139 34.7068 36.5388C34.6216 36.9482 34.5307 37.3382 34.3823 37.6767C34.2343 38.0142 34.0439 38.2655 33.7798 38.4227C33.5228 38.5758 33.2222 38.6154 32.8634 38.5733C32.5014 38.5308 32.125 38.4115 31.7274 38.2805C31.3215 38.1114 30.8885 38.0165 30.4489 38.0003L30.3752 37.9976L30.3039 38.0163C30.1518 38.0561 30.0259 38.1488 29.9549 38.2049C29.8693 38.2724 29.783 38.3532 29.7038 38.4321C29.5687 38.5667 29.4273 38.7233 29.3147 38.8481C29.2959 38.8689 29.2779 38.8888 29.2609 38.9076L29.2608 38.9076L29.2571 38.9118C28.6538 39.5927 28.1608 40.1055 27.4829 40.1055C26.805 40.1055 26.312 39.5927 25.7087 38.9118L25.7088 38.9118L25.705 38.9076C25.6879 38.8888 25.6699 38.8689 25.6511 38.8481C25.5385 38.7233 25.3971 38.5667 25.262 38.4321C25.1828 38.3532 25.0965 38.2724 25.0109 38.2049C24.9399 38.1488 24.814 38.0561 24.6619 38.0163L24.592 37.998L24.5197 38.0002C24.0785 38.014 23.6436 38.1092 23.2371 38.281C22.8358 38.4133 22.4694 38.5335 22.1115 38.5767C21.7607 38.619 21.4555 38.5817 21.1769 38.4199C20.8978 38.2578 20.7099 38.0081 20.5687 37.6778C20.425 37.3415 20.3435 36.9568 20.2592 36.5402C20.2025 36.1148 20.0722 35.7025 19.8742 35.3216L19.8013 35.1816L19.6613 35.1088C19.2809 34.9109 18.869 34.7807 18.4441 34.7238C18.0347 34.6387 17.6447 34.5478 17.3062 34.3994C16.9687 34.2514 16.7174 34.061 16.5602 33.7969C16.4071 33.5399 16.3675 33.2393 16.4096 32.8805C16.4521 32.5185 16.5714 32.1421 16.7024 31.7445C16.8715 31.3386 16.9664 30.9056 16.9826 30.466L16.9853 30.3923L16.9666 30.321C16.9268 30.1689 16.8341 30.043 16.778 29.972C16.7105 29.8864 16.6297 29.8001 16.5508 29.7209C16.4162 29.5858 16.2596 29.4444 16.1348 29.3318C16.114 29.313 16.0941 29.295 16.0753 29.2779L16.0753 29.2779L16.0711 29.2742C15.3902 28.6709 14.8774 28.1779 14.8774 27.5C14.8774 26.8221 15.3902 26.3291 16.0711 25.7258L16.0711 25.7258L16.0753 25.7221C16.0941 25.705 16.114 25.687 16.1348 25.6683C16.2596 25.5556 16.4162 25.4142 16.5508 25.2791C16.6297 25.1999 16.7105 25.1136 16.7781 25.028C16.8341 24.957 16.9268 24.8311 16.9666 24.679L16.9853 24.6077L16.9826 24.534C16.9664 24.0944 16.8715 23.6614 16.7024 23.2555C16.5699 22.8537 16.4495 22.4869 16.4062 22.1286C16.3639 21.7778 16.4012 21.4725 16.563 21.194C16.7251 20.9149 16.9748 20.727 17.3052 20.5858C17.6414 20.4421 18.0262 20.3606 18.4427 20.2763C18.8681 20.2196 19.2805 20.0893 19.6613 19.8912L19.8013 19.8184L19.8742 19.6784C20.0712 19.2995 20.2012 18.8894 20.2584 18.4663C20.3517 18.0582 20.4502 17.6685 20.6044 17.3295C20.7589 16.9896 20.9541 16.7358 21.2204 16.5773C21.4774 16.4242 21.7779 16.3846 22.1368 16.4267C22.4988 16.4692 22.8752 16.5885 23.2728 16.7195C23.6787 16.8886 24.1117 16.9835 24.5512 16.9997L24.625 17.0024L24.6963 16.9837C24.8484 16.9439 24.9743 16.8512 25.0453 16.7951C25.1309 16.7276 25.2172 16.6468 25.2964 16.5679C25.4315 16.4333 25.5729 16.2767 25.6855 16.1519C25.7043 16.1311 25.7223 16.1112 25.7393 16.0924L25.7394 16.0924L25.7431 16.0882C26.3463 15.4073 26.8394 14.8945 27.5173 14.8945C28.1952 14.8945 28.6882 15.4073 29.2915 16.0882L29.2914 16.0882L29.2952 16.0924C29.3123 16.1112 29.3302 16.1311 29.349 16.1519C29.4616 16.2766 29.6031 16.4333 29.7382 16.5679C29.8173 16.6468 29.9037 16.7276 29.9893 16.7951C30.0603 16.8512 30.1862 16.9439 30.3383 16.9837L30.4085 17.0021L30.481 16.9997C30.9219 16.9856 31.3564 16.8904 31.7628 16.7191C32.1642 16.5867 32.5307 16.4665 32.8887 16.4233C33.2395 16.381 33.5447 16.4183 33.8232 16.5801C34.1024 16.7422 34.2903 16.9919 34.4315 17.3222C34.575 17.6581 34.6565 18.0422 34.7406 18.4582C34.7935 18.875 34.917 19.2797 35.1057 19.6551L35.1783 19.7995L35.3217 19.8741C35.7006 20.0711 36.1108 20.2011 36.5339 20.2583C36.9459 20.3524 37.3351 20.4468 37.6747 20.5975C38.014 20.7481 38.2655 20.9389 38.4228 21.2031C38.5759 21.4601 38.6155 21.7607 38.5734 22.1195C38.5309 22.4815 38.4116 22.8579 38.2806 23.2555C38.1115 23.6614 38.0166 24.0944 38.0004 24.534L37.9977 24.6077L38.0164 24.679C38.0562 24.8311 38.1489 24.957 38.205 25.028C38.2725 25.1136 38.3533 25.1999 38.4322 25.2791C38.5668 25.4142 38.7235 25.5557 38.8482 25.6683C38.869 25.6871 38.8889 25.705 38.9077 25.7221ZM37.615 33.6362L37.9048 33.4844L37.8817 33.158C37.8516 32.7335 37.7513 32.3171 37.5849 31.9256C37.3629 31.2446 37.1904 30.6346 37.3247 30.1292C37.4596 29.6219 37.8777 29.2293 38.4357 28.7342C38.5636 28.6218 38.7681 28.437 38.9433 28.2542C39.0299 28.1637 39.1202 28.0627 39.1917 27.9642C39.2272 27.9152 39.2664 27.8557 39.2982 27.7899C39.3253 27.7339 39.373 27.6221 39.3695 27.4829C39.366 27.3481 39.316 27.2413 39.2879 27.1877C39.2547 27.1244 39.2148 27.0669 39.1784 27.0192C39.1054 26.9233 39.0139 26.8245 38.9263 26.7357C38.7612 26.5684 38.5696 26.3968 38.4463 26.2864C38.4377 26.2786 38.4293 26.2712 38.4214 26.264L38.4194 26.2623C37.8609 25.7669 37.4499 25.3905 37.3068 24.8639C37.1656 24.3438 37.3443 23.7545 37.5686 23.0674C37.7311 22.6723 37.8242 22.252 37.8437 21.8251L37.8583 21.5052L37.5738 21.3581C37.1891 21.1594 36.7728 21.0293 36.3435 20.9736C35.6111 20.8224 35.0522 20.6895 34.6728 20.3101C34.2943 19.9316 34.1611 19.3744 34.0103 18.6444C33.9626 18.2085 33.8372 17.7845 33.6402 17.3926L33.4884 17.0908L33.1518 17.1189C32.7258 17.1545 32.3088 17.2609 31.9179 17.4335C31.2384 17.655 30.6296 17.8267 30.125 17.6926C29.6174 17.5576 29.2246 17.1392 28.7292 16.5807L28.7285 16.5799C28.6203 16.4568 28.4375 16.2489 28.258 16.0711C28.1686 15.9827 28.0684 15.8899 27.9706 15.8163C27.922 15.7797 27.8624 15.739 27.7963 15.7058C27.7403 15.6777 27.6262 15.627 27.483 15.6306C27.3482 15.6341 27.2414 15.6841 27.1878 15.7122C27.1245 15.7454 27.067 15.7853 27.0193 15.8217C26.9234 15.8947 26.8246 15.9862 26.7358 16.0738C26.5685 16.239 26.3969 16.4305 26.2865 16.5538C26.2787 16.5625 26.2713 16.5708 26.2641 16.5787L26.2624 16.5807C25.766 17.1403 25.3946 17.55 24.8647 17.6931C24.3395 17.8348 23.7509 17.6591 23.0689 17.4321C22.6734 17.2692 22.2526 17.1759 21.8252 17.1564L21.5053 17.1418L21.3582 17.4263C21.1595 17.811 21.0294 18.2273 20.9737 18.6566C20.8225 19.389 20.6896 19.9479 20.3102 20.3273C19.9317 20.7058 19.3745 20.839 18.6445 20.9897C18.2086 21.0375 17.7846 21.1629 17.3927 21.3599L17.0935 21.5104L17.1187 21.8443C17.1504 22.2642 17.2509 22.6759 17.416 23.0631C17.6407 23.7392 17.8099 24.352 17.6755 24.8579C17.5405 25.3655 17.1221 25.7583 16.5636 26.2537L16.5628 26.2544C16.4397 26.3626 16.2318 26.5454 16.0541 26.7249C15.9656 26.8143 15.8728 26.9145 15.7992 27.0124C15.7626 27.061 15.7219 27.1205 15.6887 27.1866C15.6606 27.2426 15.6099 27.3567 15.6135 27.4999C15.617 27.6347 15.667 27.7415 15.6952 27.7951C15.7283 27.8584 15.7682 27.9159 15.8046 27.9636C15.8776 28.0595 15.9691 28.1583 16.0567 28.2471C16.2219 28.4144 16.4135 28.586 16.5367 28.6965C16.5454 28.7042 16.5537 28.7117 16.5616 28.7188L16.5636 28.7205C17.1221 29.2159 17.5331 29.5923 17.6762 30.1189C17.8175 30.6395 17.6421 31.2317 17.415 31.914C17.2521 32.3095 17.1588 32.7303 17.1393 33.1577L17.1247 33.4776L17.4092 33.6247C17.7921 33.8225 18.2064 33.9524 18.6336 34.0084L18.642 34.0104C19.3823 34.1808 19.9487 34.3112 20.3274 34.6899C20.7061 35.0686 20.8392 35.6262 20.9901 36.3568C21.0403 36.7955 21.169 37.2217 21.3702 37.6149L21.5188 37.9052L21.8443 37.8863C22.272 37.8614 22.6925 37.7654 23.0886 37.602C23.537 37.4276 24.0098 37.3237 24.49 37.2941C24.6196 37.2948 24.7486 37.3121 24.8738 37.3458L24.8752 37.3461C25.3828 37.4811 25.7756 37.8995 26.271 38.458L26.2717 38.4588C26.3799 38.5819 26.5627 38.7898 26.7422 38.9675C26.8316 39.056 26.9318 39.1488 27.0296 39.2224C27.0782 39.259 27.1378 39.2997 27.2039 39.3329C27.2599 39.361 27.374 39.4117 27.5172 39.408C27.652 39.4046 27.7588 39.3546 27.8124 39.3264C27.8757 39.2933 27.9332 39.2534 27.9809 39.217C28.0768 39.144 28.1756 39.0525 28.2644 38.9649C28.4317 38.7997 28.6033 38.6081 28.7137 38.4849C28.7215 38.4762 28.7289 38.4679 28.7361 38.46L28.7378 38.458C29.2332 37.8995 29.6096 37.4884 30.1362 37.3454C30.6563 37.2041 31.2456 37.3828 31.9327 37.6072C32.3278 37.7697 32.7481 37.8628 33.175 37.8823L33.5011 37.8972L33.6459 37.6046C33.8389 37.2146 33.962 36.7938 34.0097 36.3614C34.1774 35.6351 34.3246 35.0724 34.7072 34.6899C35.0865 34.3106 35.6454 34.1776 36.3777 34.0264C36.8099 33.9707 37.2289 33.8386 37.615 33.6362Z" fill="#B61827" stroke="#B61827"/>
</g>
<defs>
<filter id="filter0_d" x="-4" y="0" width="63" height="63" filterUnits="userSpaceOnUse" color-interpolation-filters="sRGB">
<feFlood flood-opacity="0" result="BackgroundImageFix"/>
<feColorMatrix in="SourceAlpha" type="matrix" values="0 0 0 0 0 0 0 0 0 0 0 0 0 0 0 0 0 0 127 0"/>
<feOffset dy="4"/>
<feGaussianBlur stdDeviation="2"/>
<feColorMatrix type="matrix" values="0 0 0 0 0 0 0 0 0 0 0 0 0 0 0 0 0 0 0.25 0"/>
<feBlend mode="normal" in2="BackgroundImageFix" result="effect1_dropShadow"/>
<feBlend mode="normal" in="SourceGraphic" in2="effect1_dropShadow" result="shape"/>
</filter>
<clipPath id="clip0">
<rect width="55" height="55" fill="white"/>
</clipPath>
</defs>
</svg>
