<svg width="43" height="43" viewBox="0 0 43 43" fill="none" xmlns="http://www.w3.org/2000/svg">
<path d="M34.0417 1.79167H16.1251C14.1542 1.79167 12.5417 3.40417 12.5417 5.375V10.75H16.1251V7.16667H34.0417V35.8333H16.1251V32.25H12.5417V37.625C12.5417 39.5958 14.1542 41.2083 16.1251 41.2083H34.0417C36.0126 41.2083 37.6251 39.5958 37.6251 37.625V5.375C37.6251 3.40417 36.0126 1.79167 34.0417 1.79167ZM19.3501 19.7083V17.0208C19.3501 14.5125 16.8417 12.5417 14.3334 12.5417C11.8251 12.5417 9.31675 14.5125 9.31675 17.0208V19.7083C8.24175 19.7083 7.16675 20.7833 7.16675 21.8583V28.1292C7.16675 29.3833 8.24175 30.4583 9.31675 30.4583H19.1709C20.4251 30.4583 21.5001 29.3833 21.5001 28.3083V22.0375C21.5001 20.7833 20.4251 19.7083 19.3501 19.7083ZM17.0209 19.7083H11.6459V17.0208C11.6459 15.5875 12.9001 14.6917 14.3334 14.6917C15.7667 14.6917 17.0209 15.5875 17.0209 17.0208V19.7083Z" fill="#B61827"/>
</svg>
